<svg xmlns="http://www.w3.org/2000/svg" viewBox="0 0 256 256" role="img" aria-label="캐롤봇">
  <defs>
    <linearGradient id="g" x1="0" y1="0" x2="1" y2="1">
      <stop offset="0" stop-color="#ffb4b6"/>
      <stop offset="1" stop-color="#ff9294"/>
    </linearGradient>
  </defs>
  <rect width="256" height="256" rx="56" fill="url(#g)"/>
  <g fill="none" stroke="#3a1e1e" stroke-width="10" stroke-linecap="round" stroke-linejoin="round" opacity="0.9">
    <path d="M128 56v144M63 93l130 70M193 93L63 163"/>
    <path d="M128 56l-16 16M128 56l16 16M128 200l-16-16M128 200l16-16M63 93l4 22M63 93l22-4M193 163l-4-22M193 163l-22 4M193 93l-22-4M193 93l-4 22M63 163l22 4M63 163l4-22"/>
  </g>
  <circle cx="128" cy="128" r="16" fill="#3a1e1e"/>
</svg>
